<svg xmlns="http://www.w3.org/2000/svg" width="120" height="120" viewBox="0 0 120 120" fill="none">
  <!-- Lake outline -->
  <path d="M30 80 Q25 60 35 45 Q50 25 75 30 Q95 35 100 55 Q105 75 90 90 Q70 105 45 95 Q30 90 30 80Z" 
        stroke="#6B7B8D" stroke-width="1.5" stroke-dasharray="6 4" fill="none" opacity="0.4"/>
  
  <!-- Inner lake detail -->
  <path d="M42 75 Q40 60 48 50 Q58 38 72 42 Q85 46 88 60 Q90 72 80 82 Q68 92 52 86 Q42 82 42 75Z" 
        stroke="#8B9DAB" stroke-width="1" stroke-dasharray="4 6" fill="none" opacity="0.25"/>
  
  <!-- Route lines (dotted) -->
  <line x1="55" y1="50" x2="70" y2="65" stroke="#5B9BD5" stroke-width="1.5" stroke-dasharray="3 3" opacity="0.3"/>
  <line x1="70" y1="65" x2="60" y2="78" stroke="#5B9BD5" stroke-width="1.5" stroke-dasharray="3 3" opacity="0.3"/>
  
  <!-- Pin markers -->
  <circle cx="55" cy="50" r="2.5" fill="#5B9BD5" opacity="0.3"/>
  <circle cx="70" cy="65" r="2.5" fill="#5B9BD5" opacity="0.3"/>
  <circle cx="60" cy="78" r="2.5" fill="#5B9BD5" opacity="0.3"/>
  
  <!-- Small channel lines -->
  <path d="M38 68 Q48 62 55 50" stroke="#82C4F0" stroke-width="0.8" stroke-dasharray="2 4" fill="none" opacity="0.2"/>
  <path d="M75 55 Q72 60 70 65" stroke="#82C4F0" stroke-width="0.8" stroke-dasharray="2 4" fill="none" opacity="0.2"/>
</svg>